<svg viewBox="0 0 125.706 37.931" xmlns="http://www.w3.org/2000/svg" xmlns:xlink="http://www.w3.org/1999/xlink"><linearGradient id="a" gradientTransform="matrix(.05190022 -.99865228 .99865228 .05190022 3745.091 3891.542)" gradientUnits="userSpaceOnUse" x1="3676.932" x2="3670.354" y1="-3909.195" y2="-3908.098"><stop offset="0" stop-color="#f0584b"/><stop offset="1" stop-color="#c73f3d"/></linearGradient><linearGradient id="b" gradientTransform="matrix(.05190022 -.99865228 .99865228 .05190022 3745.091 3891.542)" gradientUnits="userSpaceOnUse" x1="3660.727" x2="3681.381" y1="-3907.35" y2="-3907.35"><stop offset="0" stop-color="#fcba39"/><stop offset="1" stop-color="#d96d2d"/></linearGradient><linearGradient id="c" x1="3660.694" x2="3681.381" xlink:href="#b" y1="-3906.891" y2="-3906.891"/><radialGradient id="d" cx="3671.349" cy="-3923.346" gradientTransform="matrix(.053 -1.035 1.027 .054 3851.362 4031.935)" gradientUnits="userSpaceOnUse" r="14.151"><stop offset="0" stop-color="#f9b314"/><stop offset="1" stop-color="#ec5222"/></radialGradient><radialGradient id="e" cx="3671.352" cy="-3923.353" r="14.157" xlink:href="#d"/><radialGradient id="f" cx="3671.353" cy="-3923.35" r="14.154" xlink:href="#d"/><linearGradient id="g" x1="3660.556" x2="3681.461" xlink:href="#b" y1="-3906.967" y2="-3906.967"/><radialGradient id="h" cx="3671.354" cy="-3923.333" r="14.138" xlink:href="#d"/><linearGradient id="i" x1="3660.546" x2="3681.466" xlink:href="#b" y1="-3908.7" y2="-3908.7"/><radialGradient id="j" cx="3671.353" cy="-3923.38" r="14.181" xlink:href="#d"/><linearGradient id="k" x1="3660.549" x2="3681.465" xlink:href="#b" y1="-3914.647" y2="-3914.647"/><linearGradient id="l" x1="3660.588" x2="3681.339" xlink:href="#b" y1="-3908.862" y2="-3908.862"/><radialGradient id="m" cx="3671.305" cy="-3923.236" r="14.037" xlink:href="#d"/><linearGradient id="n" x1="3660.554" x2="3681.463" xlink:href="#b" y1="-3907.594" y2="-3907.594"/><radialGradient id="o" cx="3671.354" cy="-3923.363" r="14.166" xlink:href="#d"/><linearGradient id="p" x1="3677.207" x2="3670.665" xlink:href="#a" y1="-3907.439" y2="-3906.349"/><linearGradient id="q" x1="3677.176" x2="3670.603" xlink:href="#a" y1="-3907.723" y2="-3906.628"/><linearGradient id="r" x1="3676.648" x2="3670.075" xlink:href="#a" y1="-3910.847" y2="-3909.751"/><linearGradient id="s" x1="3676.832" x2="3670.173" xlink:href="#a" y1="-3910.611" y2="-3909.501"/><linearGradient id="t" x1="3660.538" x2="3681.471" xlink:href="#b" y1="-3907.321" y2="-3907.321"/><linearGradient id="u" x1="3677.17" x2="3670.604" xlink:href="#a" y1="-3907.74" y2="-3906.646"/><linearGradient id="v" x1="3659.879" x2="3681.853" xlink:href="#b" y1="-3906.883" y2="-3906.883"/><linearGradient id="w" x1="3677.399" x2="3670.484" xlink:href="#a" y1="-3907.485" y2="-3906.333"/><radialGradient id="x" cx="3671.352" cy="-3923.359" r="14.163" xlink:href="#d"/><linearGradient id="y" x1="3677.189" x2="3670.617" xlink:href="#a" y1="-3907.642" y2="-3906.547"/><radialGradient id="z" cx="3671.36" cy="-3923.593" r="14.37" xlink:href="#d"/><linearGradient id="A" x1="3677.201" x2="3670.669" xlink:href="#a" y1="-3907.437" y2="-3906.349"/><linearGradient id="B" x1="3660.546" x2="3681.466" xlink:href="#b" y1="-3907.86" y2="-3907.86"/><radialGradient id="C" cx="3671.351" cy="-3923.358" r="14.161" xlink:href="#d"/><g transform="translate(0 -.071)"><path d="m30.359 12.894c-.114-.194-.232-.394-.359-.594-4.714-7.318-11.3-12.909-14.64-12.162a5.518 5.518 0 0 0 -2.909 2.192 9.888 9.888 0 0 1 5.671 2.27 15.95 15.95 0 0 1 3.55 2.593c1.575 1.263 6.809 7.237 9.71 14.352 1.115 2.868 1.434 5.194.832 6.13l-.02.03c-.651 1.012-3.216 1.7-6.655 1.756a17.031 17.031 0 0 1 -1.2 3.26c5.486.2 10.016-.769 11.294-2.792 1.787-2.729-.665-10.248-5.274-17.035z" fill="#00c9db"/><path d="m34.385 20.214q-.409-.965-.9-1.958a44.752 44.752 0 0 1 -1.676 4.492c.755 2.3.917 4.124.4 4.925l-.02.03a1.888 1.888 0 0 1 -.535.513c1.295-.679 3.769-1.881 2.731-8.002z" fill="url(#a)"/><path d="m30.755 8.94.025.028c.83.927.791 3.761-.132 7.3-3.558 9.417-5.384 10.522-9.5 14.622-2.807 2.263-5.336 3.437-6.508 3.053l-.04-.014c-.786-.257-1.658-1.444-2.435-3.251a39.614 39.614 0 0 1 -3.965-1.344c1.255 4.521 3.141 7.874 5.157 8.514 3.021 1.018 9.4-3.13 14.653-9.179 6.657-7.916 8.317-19.715 5.79-22.469-1.629-1.776-6.29-2.041-11.74-.937a43.824 43.824 0 0 1 3.872 2.8c2.403-.145 4.189.169 4.823.877z" fill="#00c9db"/><path d="m33.943 19.213-.028-.06c0 .009.008.02.013.03z" fill="url(#b)"/><path d="m34.347 20.13-.014-.03.012.027z" fill="url(#c)"/><path d="m34.333 20.1c-.1-.239-.208-.479-.317-.721.063.14.123.278.184.417.043.098.09.204.133.304z" fill="url(#d)"/><path d="m34.386 20.225c1.49 3.541 2.114 6.7 1.637 8.688.01-.008.022-.015.03-.023.486-1.972-.177-5.142-1.669-8.67v.005z" fill="url(#e)"/><path d="m33.489 18.256c.148.3.289.6.427.9-.138-.3-.279-.599-.427-.9z" fill="url(#f)"/><path d="m34.345 20.124-.012-.024c-.043-.1-.09-.2-.133-.3.048.1.1.215.145.324z" fill="url(#g)"/><path d="m34.345 20.124-.012-.024c-.043-.1-.09-.2-.133-.3.048.1.1.215.145.324z" fill="url(#h)"/><path d="m32.066 27.867a1.279 1.279 0 0 0 .128-.164 1.37 1.37 0 0 1 -.128.164z" fill="url(#i)"/><path d="m32.066 27.867a1.279 1.279 0 0 0 .128-.164 1.37 1.37 0 0 1 -.128.164z" fill="url(#j)"/><path d="m34.386 20.225c1.033 6.111-1.438 7.313-2.727 7.991l.013-.011c-1.111.762-3.5 1.245-6.507 1.259a44.4 44.4 0 0 1 -8.99-1.623 9.052 9.052 0 0 0 .177 1.357c.037.175.08.348.126.519 8.243 2.233 17.182 1.176 19.545-.8.477-1.989-.147-5.151-1.637-8.692z" fill="url(#k)"/><path d="m31.914 28.017c.031-.028.061-.056.089-.083-.028.027-.058.055-.089.083z" fill="url(#l)"/><path d="m31.914 28.017c.031-.028.061-.056.089-.083-.028.027-.058.055-.089.083z" fill="url(#m)"/><path d="m33.915 19.154c-.138-.3-.279-.6-.427-.9q.229.466.44.927c-.005-.008-.008-.018-.013-.027z" fill="url(#n)"/><path d="m33.915 19.154c-.138-.3-.279-.6-.427-.9q.229.466.44.927c-.005-.008-.008-.018-.013-.027z" fill="url(#o)"/><path d="m34.385 20.219c-.012-.029-.026-.056-.037-.085v.007z" fill="url(#p)"/><path d="m34.016 19.376-.073-.163c.014.029.025.057.038.086z" fill="url(#q)"/><path d="m31.673 28.2a2.342 2.342 0 0 0 .241-.188 2.469 2.469 0 0 1 -.241.188z" fill="url(#r)"/><path d="m32 27.934c.023-.023.044-.045.063-.067-.017.022-.038.045-.063.067z" fill="url(#s)"/><path d="m33.981 19.3c-.013-.028-.024-.057-.038-.086l-.014-.03c.018.038.034.076.052.116z" fill="url(#t)"/><path d="m33.981 19.3c-.013-.028-.024-.057-.038-.086l-.014-.03c.018.038.034.076.052.116z" fill="url(#u)"/><path d="m34.349 20.137v-.007-.005z" fill="url(#v)"/><path d="m34.349 20.137v-.007-.005z" fill="url(#w)"/><path d="m34.2 19.794c-.061-.139-.121-.277-.184-.417l-.035-.077c.075.165.146.329.219.494z" fill="url(#x)"/><path d="m34.2 19.794c-.061-.139-.121-.277-.184-.417l-.035-.077c.075.165.146.329.219.494z" fill="url(#y)"/><path d="m34.386 20.225v-.006l-.036-.083c.012.03.023.059.036.089z" fill="url(#z)"/><path d="m34.386 20.225v-.006l-.036-.083c.012.03.023.059.036.089z" fill="url(#A)"/><path d="m34.386 20.225c-.013-.03-.024-.059-.037-.088v-.012c-.047-.109-.1-.22-.145-.331-.072-.165-.144-.329-.219-.495-.018-.039-.034-.077-.052-.116q-.212-.46-.44-.927a44.752 44.752 0 0 1 -1.676 4.492c.755 2.3.917 4.124.4 4.925l-.02.03a1.279 1.279 0 0 1 -.128.164c-.02.022-.041.045-.063.067s-.058.055-.089.083a2.342 2.342 0 0 1 -.241.188l-.013.011c1.285-.679 3.756-1.88 2.723-7.991z" fill="url(#B)"/><path d="m34.386 20.225c-.013-.03-.024-.059-.037-.088v-.012c-.047-.109-.1-.22-.145-.331-.072-.165-.144-.329-.219-.495-.018-.039-.034-.077-.052-.116q-.212-.46-.44-.927a44.752 44.752 0 0 1 -1.676 4.492c.755 2.3.917 4.124.4 4.925l-.02.03a1.279 1.279 0 0 1 -.128.164c-.02.022-.041.045-.063.067s-.058.055-.089.083a2.342 2.342 0 0 1 -.241.188l-.013.011c1.285-.679 3.756-1.88 2.723-7.991z" fill="url(#C)"/><g fill="#00c9db"><path d="m33.984 19.306v-.007c-.018-.039-.034-.077-.052-.116l-.009-.019c-.138-.3-.281-.6-.431-.908a44.752 44.752 0 0 1 -1.676 4.492c.755 2.3.917 4.124.4 4.925l-.02.03a1.279 1.279 0 0 1 -.128.164c-.019.022-.039.042-.061.064s-.051.048-.077.073l-.014.013a2.536 2.536 0 0 1 -.237.185h-.006c-.059.04-.124.08-.191.12l-.051.029c-.065.037-.133.072-.2.107l-.07.034c-.071.034-.144.067-.221.1l-.078.031c-.08.032-.161.064-.246.1h-.009c-.166.06-.346.115-.533.168-.058.016-.115.034-.175.049l-.2.049-.24.057-.182.038c-.1.02-.2.04-.3.059l-.156.028q-.193.033-.394.062l-.088.014a22.107 22.107 0 0 1 -2.348.2q-.32.011-.653.014.626-.743 1.237-1.528a36.656 36.656 0 0 0 6.777-17.951c.53.158 1.047.33 1.537.526.029-1.936-.315-3.459-1.088-4.31-1.162-1.323-3.982-1.8-7.541-1.533l-.106.009c-.206.016-.414.035-.626.056l-.178.018c-.207.022-.415.046-.626.073l-.143.017q-.376.05-.76.108l-.221.037q-.273.044-.549.092l-.32.058-.465.089-.21.04a44.157 44.157 0 0 0 -5.954 1.659c-.217.061-.435.124-.657.2-6.3 2.06-11.906 5.446-14.264 8.468l-.018.023a6.117 6.117 0 0 0 -.984 1.728l-.006.018a3.565 3.565 0 0 0 -.108.392v.02a2.862 2.862 0 0 0 -.065.451c-.106 1.771 1.569 4.134 4.3 6.492a7.332 7.332 0 0 1 -.088-1.113 42.743 42.743 0 0 0 8.716 4.924 29.547 29.547 0 0 0 3.549 1.193v.005c.156.042.313.081.469.121.057.014.115.029.172.044-.214-.053-.428-.108-.641-.165a9.02 9.02 0 0 0 .887 2.12c.632.166 1.264.309 1.9.434-2.017 1.334-3.723 1.964-4.624 1.669l-.04-.016c-.786-.257-1.658-1.444-2.435-3.251-1.192-.336-2.33-.717-3.4-1.128l-.547-.169c1.243 4.454 3.1 7.761 5.086 8.444 1.9.566 5.4-1.553 9.022-5.1 6.387.629 12.046-.721 13.3-2.8a3.588 3.588 0 0 0 .394-1.014c-.08.067-.169.132-.263.2.094-.064.183-.13.263-.2l.03-.023c.531-2.139-.294-5.688-2.066-9.582zm.916 10.273c.114-.052.224-.1.328-.158a8.168 8.168 0 0 1 -.858.375c.113-.042.222-.086.327-.131.073-.029.141-.057.203-.086zm-1.268.466.166-.053q.189-.059.367-.122-.506.179-1.1.333.3-.076.571-.158zm-.73.2.098-.025c-.205.053-.42.1-.639.151l.046-.01c.169-.038.337-.077.499-.117zm-.673.155c-.485.1-1 .191-1.545.267l.1-.013c.51-.075.994-.16 1.449-.254zm-2.335.368q.39-.044.763-.1-.381.054-.779.1zm-.028 0c-.569.063-1.164.112-1.778.145.619-.031 1.212-.08 1.783-.142zm-21.174-6.768a17.888 17.888 0 0 1 -3.836-3.663c-.056-.079-.11-.157-.156-.237-.014-.02-.026-.04-.039-.061a4.973 4.973 0 0 1 -.344-.623c-.02-.044-.04-.087-.057-.129s-.033-.085-.048-.128-.032-.094-.046-.14-.021-.074-.03-.11c-.013-.052-.022-.1-.03-.152 0-.029-.01-.058-.013-.086a1.39 1.39 0 0 1 -.008-.222v-.033a1.388 1.388 0 0 1 .026-.194c0-.021.009-.042.014-.063.011-.049.026-.1.042-.148.007-.023.014-.045.023-.068.025-.068.053-.138.086-.208.009-.019.02-.039.03-.059.027-.053.055-.108.087-.163.019-.033.039-.066.059-.1s.055-.088.085-.132.047-.072.073-.109.075-.1.114-.154.1-.13.155-.2l.081-.1c.044-.051.09-.1.137-.156l.07-.076c.176-.186.374-.386.591-.586l.024-.022c.078-.072.158-.144.241-.217q.256-.225.543-.454a21.627 21.627 0 0 1 1.834-1.307 75.6 75.6 0 0 1 16.265-5.737c.438-.05.859-.084 1.265-.107a15.172 15.172 0 0 1 2.412.032h.009c.114.011.224.025.332.04h.01a6.679 6.679 0 0 1 .881.18h.01c.06.018.117.037.174.056.036.011.072.023.106.035l.136.057c.04.016.079.033.117.05s.075.035.111.054.078.041.115.062.06.035.089.053.077.053.113.08c.021.016.043.031.063.047a1.394 1.394 0 0 1 .146.139l.026.027a1.34 1.34 0 0 1 .154.211 2.074 2.074 0 0 1 .129.257c.518 1.226.384 3.761-.416 6.827-3.021 8-4.795 10-7.782 12.933-7.919-1.015-9.591-2.496-14.173-5.196zm12.674 6.67c-1.031-.129-2.073-.3-3.113-.526q.452.1.905.181l.142.027q1.034.189 2.061.317zm-4.2-.776q.487.121.976.227l.076.015q-.532-.113-1.057-.243zm6.908 1.018q1.035.056 2.03.056h.027q.977 0 1.9-.05a37.182 37.182 0 0 1 -3.962-.006zm11.247-1.536.088-.048c.071-.04.138-.079.2-.12l.04-.026q-.157.099-.333.193z"/><path d="m33.489 18.256a44.752 44.752 0 0 1 -1.676 4.492c.755 2.3.917 4.124.4 4.925l-.02.03c-.674 1.048-3.4 1.746-7.029 1.761-7.687-.793-10.348-1.864-13.464-3.672-.728-.423-1.485-.885-2.334-1.393l-.674-.399a20.2 20.2 0 0 1 -3.351-3.039 4.213 4.213 0 0 1 -1.259-2.507v-.038c.043-.832.955-1.987 2.485-3.211a40.5 40.5 0 0 1 .264-4.205c-4.008 2.389-6.731 5.094-6.831 7.221-.158 2.627 3.6 6.552 8.9 9.836l.014.009q.406.251.824.5l.086.051q.43.252.87.5l.036.019q.4.222.807.436l.19.1c.287.15.575.3.867.443l.113.051c9.293 4.356 21.093 2.661 22.923-.239 1.323-2.019.327-6.652-2.141-11.671z"/><path d="m14.638 33.94-.038-.011c-1.18-.386-2.552-2.859-3.507-6.387-1.59-9.947-.558-11.824.976-17.45 1.308-3.374 2.916-5.665 4.121-5.925l.036-.006c.808-.174 2.152.415 3.72 1.587a40.056 40.056 0 0 1 4.1-.833c-3.326-3.284-6.623-5.238-8.686-4.777-3.121.642-6.585 7.448-8.136 15.335-1.834 10.208 2.661 21.327 6.137 22.375 2.3.692 6.46-1.4 10.633-5.1a43.64 43.64 0 0 1 -4.74-.469c-2.013 1.328-3.716 1.956-4.616 1.661z"/><path d="m15.42.129c-2.691.653-5.478 7.386-6.585 15.258-1.235 9.794 2.751 20.613 5.63 22.607 2.385-.045 5.958-2.081 9.528-5.249a43.64 43.64 0 0 1 -4.74-.469c-2.012 1.332-3.715 1.96-4.615 1.665l-.038-.012c-1.18-.386-2.552-2.859-3.507-6.387-1.59-9.947-.558-11.824.976-17.45 1.308-3.374 2.916-5.665 4.121-5.925l.036-.006c.808-.174 2.152.415 3.72 1.587 1.2-.307 2.374-.552 3.508-.737l.557-.129c-3.283-3.233-6.531-5.164-8.591-4.753z"/><path d="m22.348 34.123c.545-.432 1.1-.891 1.646-1.379a43.64 43.64 0 0 1 -4.74-.469c-2.012 1.332-3.715 1.96-4.615 1.665l-.039-.011a1.884 1.884 0 0 1 -.63-.387c.987 1.079 2.78 3.176 8.378.581z"/><path d="m24.015 4.882-.015-.016a6.918 6.918 0 0 0 -6.043-1.315 8.226 8.226 0 0 0 -1.906.661c.048-.016.1-.034.143-.045l.036-.006c.808-.174 2.152.415 3.72 1.587 1.2-.307 2.374-.552 3.508-.737z"/></g><path d="m62.4 32.232h-14.567v-26.306h4.367v22.619h10.2z" fill="#f1f1f8"/><path d="m81.624 24h-12.8a5.413 5.413 0 0 0 1.605 4.017 5.972 5.972 0 0 0 4.21 1.413 9.284 9.284 0 0 0 5.522-1.8v3.43a12.615 12.615 0 0 1 -6.788 1.614 8.4 8.4 0 0 1 -6.5-2.559q-2.357-2.559-2.357-7.2a10.009 10.009 0 0 1 2.6-7.145 8.491 8.491 0 0 1 6.448-2.761 7.4 7.4 0 0 1 5.962 2.477 10.282 10.282 0 0 1 2.11 6.879v1.635zm-4.109-3.009a5.484 5.484 0 0 0 -1.082-3.568 3.616 3.616 0 0 0 -2.933-1.279 4.13 4.13 0 0 0 -3.109 1.339 6.118 6.118 0 0 0 -1.568 3.5h8.7z" fill="#f1f1f8"/><path d="m102.408 32.232h-4.256v-10.585q0-5.265-3.724-5.265a4.066 4.066 0 0 0 -3.21 1.458 5.41 5.41 0 0 0 -1.266 3.678v10.714h-4.274v-18.785h4.274v3.119h.073a6.7 6.7 0 0 1 6.09-3.559 5.672 5.672 0 0 1 4.679 1.993 8.938 8.938 0 0 1 1.614 5.751z" fill="#f1f1f8"/><path d="m115.928 32.672a9.311 9.311 0 0 1 -6.943-2.632 9.509 9.509 0 0 1 -2.6-6.98 9.9 9.9 0 0 1 2.706-7.393 9.95 9.95 0 0 1 7.292-2.66 9.012 9.012 0 0 1 6.861 2.587 9.992 9.992 0 0 1 2.458 7.173 9.845 9.845 0 0 1 -2.651 7.2 9.522 9.522 0 0 1 -7.123 2.705zm.2-16.272a4.858 4.858 0 0 0 -3.944 1.743 7.3 7.3 0 0 0 -1.449 4.806 6.873 6.873 0 0 0 1.465 4.651 4.929 4.929 0 0 0 3.926 1.7 4.677 4.677 0 0 0 3.862-1.669 7.389 7.389 0 0 0 1.348-4.751 7.5 7.5 0 0 0 -1.348-4.788 4.655 4.655 0 0 0 -3.858-1.692z" fill="#f1f1f8"/></g></svg>